<mxfile host="app.diagrams.net" modified="2023-11-08T18:44:12.323Z" agent="Mozilla/5.0 (X11; Linux x86_64) AppleWebKit/537.36 (KHTML, like Gecko) Chrome/117.0.0.0 Safari/537.36" etag="sj9rB6FhtJVDUtZh0ibq" version="22.0.8" type="github">
  <diagram id="C5RBs43oDa-KdzZeNtuy" name="Page-1">
    <mxGraphModel dx="1360" dy="771" grid="1" gridSize="10" guides="1" tooltips="1" connect="1" arrows="1" fold="1" page="1" pageScale="1" pageWidth="827" pageHeight="1169" math="0" shadow="0">
      <root>
        <mxCell id="WIyWlLk6GJQsqaUBKTNV-0" />
        <mxCell id="WIyWlLk6GJQsqaUBKTNV-1" parent="WIyWlLk6GJQsqaUBKTNV-0" />
        <mxCell id="8tz8ahUFZz2-RmAJs9Ax-0" value="Igrac&lt;br&gt;" style="shape=umlActor;verticalLabelPosition=bottom;verticalAlign=top;html=1;outlineConnect=0;" vertex="1" parent="WIyWlLk6GJQsqaUBKTNV-1">
          <mxGeometry x="100" y="300" width="30" height="60" as="geometry" />
        </mxCell>
        <mxCell id="8tz8ahUFZz2-RmAJs9Ax-1" value="Posmatrac" style="shape=umlActor;verticalLabelPosition=bottom;verticalAlign=top;html=1;outlineConnect=0;" vertex="1" parent="WIyWlLk6GJQsqaUBKTNV-1">
          <mxGeometry x="670" y="300" width="30" height="60" as="geometry" />
        </mxCell>
        <mxCell id="8tz8ahUFZz2-RmAJs9Ax-3" value="" style="rounded=0;whiteSpace=wrap;html=1;rotation=-90;" vertex="1" parent="WIyWlLk6GJQsqaUBKTNV-1">
          <mxGeometry x="40" y="180" width="725" height="425" as="geometry" />
        </mxCell>
        <mxCell id="8tz8ahUFZz2-RmAJs9Ax-5" value="Igranje jedne partije igre" style="ellipse;whiteSpace=wrap;html=1;" vertex="1" parent="WIyWlLk6GJQsqaUBKTNV-1">
          <mxGeometry x="240" y="120" width="140" height="70" as="geometry" />
        </mxCell>
        <mxCell id="8tz8ahUFZz2-RmAJs9Ax-6" value="Cuvanje konacnog rezultata&lt;br&gt;" style="ellipse;whiteSpace=wrap;html=1;" vertex="1" parent="WIyWlLk6GJQsqaUBKTNV-1">
          <mxGeometry x="240" y="300" width="140" height="70" as="geometry" />
        </mxCell>
        <mxCell id="8tz8ahUFZz2-RmAJs9Ax-7" value="Pozivanje posetioca i pracenje igre" style="ellipse;whiteSpace=wrap;html=1;" vertex="1" parent="WIyWlLk6GJQsqaUBKTNV-1">
          <mxGeometry x="450" y="180" width="140" height="70" as="geometry" />
        </mxCell>
        <mxCell id="8tz8ahUFZz2-RmAJs9Ax-8" value="Prikazivanje najboljig rezultata" style="ellipse;whiteSpace=wrap;html=1;" vertex="1" parent="WIyWlLk6GJQsqaUBKTNV-1">
          <mxGeometry x="350" y="420" width="140" height="70" as="geometry" />
        </mxCell>
        <mxCell id="8tz8ahUFZz2-RmAJs9Ax-13" value="" style="endArrow=classic;html=1;rounded=0;dashed=1;entryX=1;entryY=1;entryDx=0;entryDy=0;" edge="1" parent="WIyWlLk6GJQsqaUBKTNV-1" source="8tz8ahUFZz2-RmAJs9Ax-7" target="8tz8ahUFZz2-RmAJs9Ax-5">
          <mxGeometry width="50" height="50" relative="1" as="geometry">
            <mxPoint x="390" y="427.5" as="sourcePoint" />
            <mxPoint x="330" y="357.5" as="targetPoint" />
            <Array as="points">
              <mxPoint x="430" y="220" />
              <mxPoint x="400" y="210" />
            </Array>
          </mxGeometry>
        </mxCell>
        <mxCell id="8tz8ahUFZz2-RmAJs9Ax-15" value="Aplikacija brzo kucanje" style="text;html=1;align=center;verticalAlign=middle;resizable=0;points=[];autosize=1;strokeColor=none;fillColor=none;" vertex="1" parent="WIyWlLk6GJQsqaUBKTNV-1">
          <mxGeometry x="310" y="30" width="150" height="30" as="geometry" />
        </mxCell>
      </root>
    </mxGraphModel>
  </diagram>
</mxfile>
